<?xml version="1.0" encoding="UTF-8" standalone="no"?>
<!-- Created with Inkscape (http://www.inkscape.org/) -->

<svg
   width="16"
   height="16"
   viewBox="0 0 16 16"
   version="1.1"
   id="svg1"
   inkscape:version="1.3 (0e150ed6c4, 2023-07-21)"
   sodipodi:docname="o_temp16x16.svg"
   xmlns:inkscape="http://www.inkscape.org/namespaces/inkscape"
   xmlns:sodipodi="http://sodipodi.sourceforge.net/DTD/sodipodi-0.dtd"
   xmlns="http://www.w3.org/2000/svg"
   xmlns:svg="http://www.w3.org/2000/svg">
  <sodipodi:namedview
     id="namedview1"
     pagecolor="#505050"
     bordercolor="#ffffff"
     borderopacity="1"
     inkscape:showpageshadow="0"
     inkscape:pageopacity="0"
     inkscape:pagecheckerboard="1"
     inkscape:deskcolor="#505050"
     inkscape:document-units="px"
     showgrid="true"
     inkscape:zoom="26.75"
     inkscape:cx="-2.1308411"
     inkscape:cy="5.7196262"
     inkscape:window-width="1916"
     inkscape:window-height="1036"
     inkscape:window-x="0"
     inkscape:window-y="0"
     inkscape:window-maximized="1"
     inkscape:current-layer="layer1">
    <inkscape:grid
       id="grid1"
       units="px"
       originx="0"
       originy="0"
       spacingx="1"
       spacingy="1"
       empcolor="#0099e5"
       empopacity="0.30196078"
       color="#0099e5"
       opacity="0.14901961"
       empspacing="5"
       dotted="false"
       gridanglex="30"
       gridanglez="30"
       visible="true" />
  </sodipodi:namedview>
  <defs
     id="defs1" />
  <g
     inkscape:label="Layer 1"
     inkscape:groupmode="layer"
     id="layer1">
    <path
       d="M 8,0 A 8,8 0 0 0 6.8613281,0.08203125 8,8 0 0 0 5.7460937,0.32421875 8,8 0 0 0 4.6757812,0.72265625 8,8 0 0 0 3.6757813,1.2695312 8,8 0 0 0 2.7617188,1.953125 8,8 0 0 0 1.953125,2.7617188 8,8 0 0 0 1.2695312,3.6757813 8,8 0 0 0 0.72265625,4.6757812 8,8 0 0 0 0.32421875,5.7460937 8,8 0 0 0 0.08203125,6.8613281 8,8 0 0 0 0,8 a 8,8 0 0 0 0.08203125,1.1386719 8,8 0 0 0 0.2421875,1.1152341 8,8 0 0 0 0.3984375,1.070313 8,8 0 0 0 0.54687495,1 8,8 0 0 0 0.6835938,0.914062 8,8 0 0 0 0.8085938,0.808594 8,8 0 0 0 0.9140625,0.683594 8,8 0 0 0 0.9999999,0.546875 8,8 0 0 0 1.0703125,0.398437 8,8 0 0 0 1.1152344,0.242188 A 8,8 0 0 0 8,16 a 8,8 0 0 0 1.1386719,-0.08203 8,8 0 0 0 1.1152341,-0.242188 8,8 0 0 0 1.070313,-0.398437 8,8 0 0 0 1,-0.546875 8,8 0 0 0 0.914062,-0.683594 8,8 0 0 0 0.808594,-0.808594 8,8 0 0 0 0.683594,-0.914062 8,8 0 0 0 0.546875,-1 8,8 0 0 0 0.398437,-1.070313 A 8,8 0 0 0 15.917969,9.1386719 8,8 0 0 0 16,8 8,8 0 0 0 15.990234,7.6074219 8,8 0 0 0 15.960938,7.2167969 8,8 0 0 0 15.914063,6.8261719 8,8 0 0 0 15.845703,6.4394531 8,8 0 0 0 15.759766,6.0566406 8,8 0 0 0 15.65625,5.6777344 8,8 0 0 0 15.533203,5.3046875 8,8 0 0 0 15.390625,4.9394531 8,8 0 0 0 15.232422,4.5800781 8,8 0 0 0 15.054688,4.2285156 8,8 0 0 0 14.861328,3.8867188 8,8 0 0 0 14.652344,3.5546875 8,8 0 0 0 14.425781,3.234375 8,8 0 0 0 14.183594,2.9257813 8,8 0 0 0 13.927734,2.6269531 8,8 0 0 0 13.65625,2.34375 8,8 0 0 0 13.373047,2.0722656 8,8 0 0 0 13.074219,1.8164062 8,8 0 0 0 12.765625,1.5742187 8,8 0 0 0 12.445313,1.3476562 8,8 0 0 0 12.113281,1.1386719 8,8 0 0 0 11.771484,0.9453125 8,8 0 0 0 11.419922,0.76757812 8,8 0 0 0 11.060547,0.609375 8,8 0 0 0 10.695313,0.46679688 8,8 0 0 0 10.322266,0.34375 8,8 0 0 0 9.9433594,0.24023438 8,8 0 0 0 9.5605469,0.15429687 8,8 0 0 0 9.1738281,0.0859375 8,8 0 0 0 8.7832031,0.0390625 8,8 0 0 0 8.3925781,0.00976563 8,8 0 0 0 8,0 Z m 0,2 a 6,6 0 0 1 0.3359375,0.00977 6,6 0 0 1 0.3359375,0.027344 6,6 0 0 1 0.3339844,0.046875 6,6 0 0 1 0.3300781,0.066406 6,6 0 0 1 0.3242188,0.083984 6,6 0 0 1 0.3222656,0.1015625 6,6 0 0 1 0.3144531,0.1210938 6,6 0 0 1 0.306641,0.1367187 6,6 0 0 1 0.298828,0.1542969 6,6 0 0 1 0.289062,0.171875 6,6 0 0 1 0.28125,0.1875 6,6 0 0 1 0.267578,0.2011719 6,6 0 0 1 0.257813,0.2167968 6,6 0 0 1 0.244141,0.2324219 6,6 0 0 1 0.232421,0.2441406 6,6 0 0 1 0.216797,0.2578125 6,6 0 0 1 0.201172,0.2675781 6,6 0 0 1 0.1875,0.28125 6,6 0 0 1 0.171875,0.2890625 6,6 0 0 1 0.154297,0.2988282 6,6 0 0 1 0.136719,0.3066406 6,6 0 0 1 0.121094,0.3144531 6,6 0 0 1 0.101562,0.3222656 6,6 0 0 1 0.08398,0.3242188 6,6 0 0 1 0.06641,0.3300781 6,6 0 0 1 0.04687,0.3339844 6,6 0 0 1 0.02734,0.3359375 A 6,6 0 0 1 14,8 a 6,6 0 0 1 -0.07422,0.9394531 6,6 0 0 1 -0.21875,0.9140625 6,6 0 0 1 -0.361328,0.8710934 6,6 0 0 1 -0.492187,0.802735 6,6 0 0 1 -0.611328,0.714844 6,6 0 0 1 -0.714844,0.611328 6,6 0 0 1 -0.802735,0.492187 6,6 0 0 1 -0.8710934,0.361328 6,6 0 0 1 -0.9140625,0.21875 A 6,6 0 0 1 8,14 6,6 0 0 1 7.0605469,13.925781 6,6 0 0 1 6.1464844,13.707031 6,6 0 0 1 5.2753906,13.345703 6,6 0 0 1 4.4726562,12.853516 6,6 0 0 1 3.7578125,12.242188 6,6 0 0 1 3.1464844,11.527344 6,6 0 0 1 2.6542969,10.724609 6,6 0 0 1 2.2929688,9.8535156 6,6 0 0 1 2.0742188,8.9394531 6,6 0 0 1 2,8 6,6 0 0 1 2.0742188,7.0605469 6,6 0 0 1 2.2929688,6.1464844 6,6 0 0 1 2.6542969,5.2753906 6,6 0 0 1 3.1464844,4.4726562 6,6 0 0 1 3.7578125,3.7578125 6,6 0 0 1 4.4726562,3.1464844 6,6 0 0 1 5.2753906,2.6542969 6,6 0 0 1 6.1464844,2.2929688 6,6 0 0 1 7.0605469,2.0742188 6,6 0 0 1 8,2 Z"
       style="fill:#020e13;stroke-width:2.078;paint-order:fill markers stroke"
       id="path4" />
  </g>
</svg>
