<?xml version="1.0" encoding="UTF-8" standalone="no"?>
<!-- Created with Inkscape (http://www.inkscape.org/) -->

<svg
   width="16"
   height="16"
   viewBox="0 0 16 16"
   version="1.1"
   id="svg1"
   xml:space="preserve"
   sodipodi:docname="return_figma16x16.svg"
   inkscape:version="1.3 (0e150ed6c4, 2023-07-21)"
   xmlns:inkscape="http://www.inkscape.org/namespaces/inkscape"
   xmlns:sodipodi="http://sodipodi.sourceforge.net/DTD/sodipodi-0.dtd"
   xmlns="http://www.w3.org/2000/svg"
   xmlns:svg="http://www.w3.org/2000/svg"><sodipodi:namedview
     id="namedview1"
     pagecolor="#505050"
     bordercolor="#ffffff"
     borderopacity="1"
     inkscape:showpageshadow="0"
     inkscape:pageopacity="0"
     inkscape:pagecheckerboard="1"
     inkscape:deskcolor="#505050"
     inkscape:document-units="px"
     inkscape:zoom="18.915106"
     inkscape:cx="10.256353"
     inkscape:cy="6.4498712"
     inkscape:window-width="956"
     inkscape:window-height="1036"
     inkscape:window-x="960"
     inkscape:window-y="0"
     inkscape:window-maximized="1"
     inkscape:current-layer="layer1" /><defs
     id="defs1"><clipPath
       id="clip0_39_14182"><rect
         width="9"
         height="9"
         fill="white"
         transform="translate(0.5)"
         id="rect1" /></clipPath></defs><g
     inkscape:label="Layer 1"
     inkscape:groupmode="layer"
     id="layer1"><g
       style="fill:none;stroke-width:1.05635692;stroke-dasharray:none"
       id="g1"
       transform="matrix(1.777824,0,0,1.7777924,-0.88891199,-1.3701113e-4)"><path
         d="m 5.33606,7.32344e-4 c -10e-6,-8.919e-6 -10e-6,-2.8066e-5 0,-2.8193e-5 C 5.37041,3.67033e-4 5.4055,7.95684e-4 5.45268,8.29213e-5 5.45615,3.04464e-5 5.45963,3.30735e-4 5.46304,9.86712e-4 5.57616,0.0227388 5.68148,0.0452521 5.78999,0.0678016 5.85212,0.0807121 5.91275,0.099373 5.96939,0.127997 6.07932,0.187453 6.1775,0.242577 6.2863,0.303236 6.33159,0.324714 6.36626,0.340658 6.41091,0.357064 6.51786,0.414601 6.61483,0.471675 6.72212,0.533316 6.75866,0.554958 6.78487,0.572033 6.8203,0.591968 6.93115,0.653297 7.03277,0.711766 7.14439,0.769799 7.17603,0.781646 7.19767,0.793927 7.23127,0.810562 7.34081,0.870069 7.4384,0.925221 7.54661,0.985906 7.6283,1.02466 7.71131,1.06103 7.78992,1.10571 7.85326,1.1417 7.91576,1.17821 7.98228,1.21634 8.01892,1.23774 8.04508,1.25492 8.08054,1.2748 8.19147,1.33597 8.29309,1.39444 8.40471,1.45247 8.46323,1.47752 8.51177,1.52101 8.55487,1.56786 8.58471,1.60029 8.61373,1.63275 8.64278,1.66613 8.68944,1.71972 8.71625,1.78617 8.71642,1.85722 8.71647,1.87588 8.71544,1.89599 8.71126,1.91417 8.66128,2.13155 8.44711,2.20802 8.27402,2.31722 8.2293,2.34543 8.18211,2.37066 8.11697,2.40527 8.09511,2.41772 8.08386,2.42571 8.07532,2.43257 c -2.3e-4,1.9e-4 -0.01791,0.00786 -0.0182,0.00792 -2e-5,0 -1.1e-4,3e-5 -1.3e-4,4e-5 C 7.92704,2.50888 7.80877,2.57489 7.67852,2.6429 7.65776,2.65073 7.64188,2.65775 7.62679,2.6647 7.60969,2.67257 7.59588,2.68529 7.57974,2.69498 7.51675,2.72829 7.46337,2.75411 7.41189,2.78253 7.04605,2.98451 6.68059,3.18703 6.30414,3.39125 6.28281,3.40169 6.27234,3.41025 6.26262,3.41823 6.26877,3.4134 6.24836,3.42268 6.24142,3.42629 6.11538,3.49191 6.00003,3.55619 5.87469,3.62224 5.85456,3.63085 5.84024,3.63842 5.82803,3.64561 5.82554,3.64708 5.80623,3.65182 5.80338,3.65229 5.65322,3.66231 5.51312,3.6707 5.36984,3.67444 5.32773,3.67554 5.2876,3.66501 5.24935,3.64737 5.21703,3.63246 5.18614,3.6117 5.16275,3.58486 5.13372,3.55155 5.10627,3.51845 5.07974,3.48457 5.02311,3.41224 4.9949,3.32149 4.99666,3.22964 4.9974,3.07323 4.99606,2.9309 4.99625,2.77714 c 4e-5,-0.00477 7e-5,-0.00943 9e-5,-0.01402 C 4.99668,2.68201 4.9827,2.55773 4.90162,2.5596 4.77495,2.56254 4.64867,2.57845 4.51323,2.58942 4.50966,2.58971 4.50612,2.59048 4.50279,2.59182 4.48724,2.59809 4.47596,2.60451 4.46565,2.6106 4.46085,2.61344 4.45204,2.61651 4.44647,2.61614 4.44591,2.6161 4.4437,2.61598 4.44314,2.61605 4.38161,2.62356 4.33281,2.63216 4.27085,2.64239 4.08551,2.69827 3.90766,2.74172 3.74245,2.8088 3.25925,3.00501 2.90076,3.33729 2.59489,3.70004 2.42775,3.89828 2.35404,4.15633 2.241,4.38861 2.23921,4.39228 2.23843,4.39484 2.23461,4.39627 2.23335,4.39674 2.22947,4.39901 2.22886,4.40021 2.21715,4.42311 2.21433,4.44184 2.20439,4.47005 2.18941,4.52709 2.18195,4.57416 2.16693,4.63022 2.1495,4.75849 2.13606,4.88203 2.12312,5.00822 2.11323,5.10465 2.11267,5.20218 2.13259,5.29705 2.16061,5.4236 2.1848,5.53735 2.20856,5.66122 2.22617,5.73981 2.25403,5.8158 2.28613,5.88967 2.31735,5.9615 2.34835,6.03133 2.37949,6.10504 2.39838,6.14409 2.41694,6.17434 2.43971,6.21501 2.50197,6.31109 2.56001,6.39675 2.62232,6.48992 2.64572,6.51996 2.66485,6.54249 2.68815,6.57423 2.76966,6.65853 2.84699,6.73362 2.92873,6.81584 2.96025,6.84438 2.98737,6.86579 3.01449,6.8872 3.10136,6.95504 3.18824,7.02288 3.28605,7.09394 3.32208,7.11381 3.34717,7.13046 3.38072,7.15072 3.48752,7.20494 3.58585,7.25554 3.69619,7.30985 3.74288,7.3295 3.77755,7.34545 3.8222,7.36186 3.95162,7.40249 4.07106,7.44264 4.20383,7.4829 4.2529,7.49214 4.28864,7.50128 4.33569,7.50919 4.4922,7.52866 4.63739,7.54935 4.80715,7.5733 4.89689,7.58949 4.98822,7.59464 5.07894,7.58543 5.23016,7.57006 5.37603,7.55408 5.52919,7.5388 5.61002,7.52211 5.67856,7.50426 5.76088,7.48472 5.81294,7.47753 5.85252,7.47571 5.88933,7.46596 6.53053,7.29616 7.00627,6.92456 7.38947,6.47033 7.56082,6.26722 7.64043,6.00534 7.75892,5.76895 7.76074,5.76531 7.76161,5.76273 7.76543,5.7613 7.76667,5.76084 7.77052,5.75858 7.77113,5.7574 7.78285,5.73449 7.78559,5.71575 7.79258,5.68733 7.80631,5.62764 7.81558,5.57815 7.83249,5.51817 7.85683,5.34347 7.87352,5.17927 7.89167,5.00348 7.89295,4.96466 7.89301,4.93543 7.89297,4.90707 7.89296,4.90333 7.89604,4.8987 7.89946,4.89719 7.90024,4.89685 7.90234,4.89554 7.90279,4.89482 7.91445,4.87631 7.91921,4.86139 7.92398,4.84646 8.01615,4.63485 8.17779,4.48241 8.43471,4.39676 8.56163,4.37143 8.69229,4.37213 8.82006,4.39271 8.87792,4.40202 8.9357,4.41183 8.99535,4.42228 c 0.03158,0.00553 0.0645,0.01543 0.09402,0.02797 0.05418,0.02302 0.10307,0.05293 0.14524,0.094 0.051,0.04966 0.10003,0.09974 0.15212,0.1517 C 9.40314,4.71232 9.4185,4.7304 9.42941,4.75084 9.44811,4.78588 9.45921,4.82417 9.46396,4.8636 9.47804,4.98036 9.48803,5.09404 9.4995,5.21797 9.5013,5.31207 9.49386,5.40616 9.48049,5.49932 9.46299,5.62126 9.44466,5.74065 9.42546,5.8667 9.40377,5.94016 9.38376,6.00098 9.36453,6.07244 9.28458,6.28378 9.20387,6.48461 9.12106,6.69637 9.12005,6.69894 9.11898,6.70347 9.11872,6.70622 9.11787,6.71555 9.10785,6.71818 9.10283,6.7261 9.0965,6.73609 9.09217,6.74547 9.08857,6.75463 9.08452,6.76494 9.07984,6.775 9.07388,6.78433 9.025,6.86086 8.97606,6.93788 8.926,7.02348 8.92283,7.0289 8.92269,7.03644 8.91808,7.04072 8.9134,7.04506 8.90778,7.04795 8.90425,7.05327 8.9013,7.05773 8.89893,7.06186 8.89693,7.06577 8.8903,7.07873 8.88344,7.09164 8.87385,7.10259 8.66611,7.33988 8.47856,7.59432 8.2412,7.80644 8.00244,8.01982 7.71096,8.18846 7.442,8.37607 7.40266,8.40351 7.35994,8.42727 7.2998,8.46069 7.27267,8.47595 7.26175,8.48441 7.25206,8.49236 c -3e-5,2e-5 3.8e-4,0.00119 4e-4,0.00122 2e-5,10e-6 2e-5,4e-5 0,5e-5 C 7.15417,8.53665 7.055,8.57883 6.94966,8.62927 6.79926,8.68636 6.6562,8.73805 6.51044,8.78312 6.40121,8.8169 6.28851,8.84216 6.16517,8.87638 6.08087,8.89305 6.00876,8.90453 5.92763,8.92335 5.73395,8.95297 5.54928,8.97527 5.34984,8.99944 5.29077,9.00044 5.24646,8.99955 5.18899,8.99999 5.05739,9.0001 4.93314,8.99947 4.80394,8.99938 4.71499,8.99931 4.62642,8.99133 4.53957,8.97214 4.38677,8.95305 4.24479,8.93442 4.08903,8.91396 4.00363,8.90593 3.91895,8.89165 3.83593,8.87004 3.73655,8.84417 3.64006,8.81901 3.53799,8.7941 3.4959,8.7836 3.46493,8.77259 3.42135,8.76137 3.29985,8.71976 3.19097,8.67837 3.06936,8.63346 3.02181,8.61426 2.98701,8.59858 2.94205,8.58299 2.83369,8.53256 2.73549,8.48205 2.62521,8.42785 2.58853,8.40613 2.56391,8.38811 2.5298,8.36741 2.42419,8.30108 2.32808,8.23743 2.2218,8.16955 2.18577,8.14728 2.15991,8.12924 2.12423,8.10971 2.03206,8.04142 1.94972,7.97462 1.86083,7.89795 1.83216,7.86681 1.81003,7.84552 1.7803,7.8214 1.69645,7.74709 1.6202,7.67564 1.53368,7.5987 1.50712,7.56838 1.49085,7.54352 1.46623,7.51359 1.38702,7.42332 1.31617,7.33813 1.23576,7.24768 1.21013,7.21747 1.19406,7.19253 1.16948,7.16318 1.10695,7.07035 1.05293,6.98194 0.988671,6.88721 0.964917,6.84856 0.951398,6.81622 0.930181,6.77838 0.875062,6.6785 0.82764,6.58411 0.775532,6.47921 0.76194,6.43829 0.753034,6.40789 0.740624,6.36846 0.699885,6.25116 0.66265,6.14288 0.614614,6.0274 0.601194,5.98232 0.598575,5.94446 0.59068,5.89883 0.565078,5.77128 0.544754,5.65149 0.513023,5.52365 0.501611,5.47795 0.501604,5.44031 0.500037,5.39153 0.499825,5.23829 0.501173,5.09617 0.500498,4.93982 0.499493,4.88697 0.50051,4.84836 0.5,4.79826 0.522525,4.62414 0.546578,4.4615 0.568688,4.28589 0.578972,4.23309 0.591061,4.19231 0.602438,4.14189 0.603301,4.13807 0.60288,4.13231 0.603852,4.12852 0.605816,4.12085 0.614816,4.11984 0.61876,4.11298 0.626686,4.0992 0.630649,4.08698 0.634612,4.07476 0.715366,3.87379 0.796121,3.67283 0.878962,3.46101 0.879951,3.45848 0.881017,3.45404 0.881269,3.45134 0.882132,3.44205 0.892124,3.43941 0.897123,3.43154 0.904049,3.42063 0.90858,3.41044 0.912376,3.40048 0.915694,3.39177 0.919477,3.38323 0.924121,3.37515 0.962663,3.30806 1.00125,3.24048 1.04066,3.16428 1.0436,3.15859 1.04326,3.15075 1.04802,3.14646 1.05275,3.14218 1.05865,3.13969 1.06256,3.13465 1.06649,3.12958 1.0696,3.12494 1.07221,3.12056 1.07903,3.10913 1.08594,3.09772 1.09476,3.08775 1.32252,2.83052 1.5266,2.55264 1.78815,2.32486 2.06702,2.082 2.40331,1.88921 2.73368,1.66678 2.76112,1.65178 2.77217,1.6434 2.78199,1.63552 c 0,0 -3.7e-4,-0.00119 -3.8e-4,-0.0012 -1e-5,0 -1e-5,-1e-5 0,-1e-5 C 2.88035,1.59138 2.97998,1.54927 3.08652,1.49917 3.35252,1.41419 3.61162,1.33721 3.89401,1.2543 3.96994,1.2375 4.0226,1.22664 4.08994,1.21736 4.29152,1.19802 4.47842,1.17709 4.67877,1.1575 4.93131,1.15775 5.00285,1.08924 4.99666,0.855201 4.99745,0.698914 4.99617,0.55669 4.99621,0.401261 4.99661,0.325182 5.02647,0.251713 5.08309,0.200892 5.14318,0.146949 5.20618,0.0921933 5.27789,0.0350008 c 2e-5,-1.81e-5 5e-5,-3.39e-5 8e-5,-4.6e-5 0.0314,-0.0143794 0.04538,-0.0238887 0.05837,-0.03311907 2e-5,-1.135e-5 -2.7e-4,-0.00108987 -2.8e-4,-0.001103386 z"
         fill="#53b994"
         id="path1"
         clip-path="url(#clipPath2)"
         style="stroke-width:1.05635692;stroke-dasharray:none" /></g></g></svg>
