<?xml version="1.0" encoding="UTF-8" standalone="no"?>
<!-- Created with Inkscape (http://www.inkscape.org/) -->

<svg
   width="16"
   height="16"
   viewBox="0 0 16 16"
   version="1.1"
   id="svg1"
   xml:space="preserve"
   sodipodi:docname="return_figma16x16.svg"
   inkscape:version="1.3 (0e150ed6c4, 2023-07-21)"
   xmlns:inkscape="http://www.inkscape.org/namespaces/inkscape"
   xmlns:sodipodi="http://sodipodi.sourceforge.net/DTD/sodipodi-0.dtd"
   xmlns="http://www.w3.org/2000/svg"
   xmlns:svg="http://www.w3.org/2000/svg"><sodipodi:namedview
     id="namedview1"
     pagecolor="#505050"
     bordercolor="#ffffff"
     borderopacity="1"
     inkscape:showpageshadow="0"
     inkscape:pageopacity="0"
     inkscape:pagecheckerboard="1"
     inkscape:deskcolor="#505050"
     inkscape:document-units="px"
     inkscape:zoom="18.915106"
     inkscape:cx="10.256353"
     inkscape:cy="6.4498712"
     inkscape:window-width="956"
     inkscape:window-height="1036"
     inkscape:window-x="960"
     inkscape:window-y="0"
     inkscape:window-maximized="1"
     inkscape:current-layer="layer1" /><defs
     id="defs1"><clipPath
       id="clip0_39_14182"><rect
         width="9"
         height="9"
         fill="white"
         transform="translate(0.5)"
         id="rect1" /></clipPath><clipPath
       id="clip0_39_14193"><rect
         width="7"
         height="11"
         fill="white"
         transform="translate(0.5)"
         id="rect114" /></clipPath></defs><g
     inkscape:label="Layer 1"
     inkscape:groupmode="layer"
     id="layer1"><g
       style="fill:none"
       id="g1"
       transform="matrix(2.3049276,0,0,1.4631592,-1.2869563,-0.09475173)"><g
         clip-path="url(#clip0_39_14193)"
         id="g114"><path
           d="m 5.51663,11.0588 c -0.31237,0 -0.62474,0 -0.96391,-0.0147 C 4.52589,11.0196 4.52585,11.0098 4.52602,10.9724 4.52673,10.3366 4.52723,9.72842 4.54104,9.1187 4.55435,9.1172 4.58108,9.11548 4.60863,9.1163 5.25977,9.11793 5.88335,9.11873 6.50692,9.13845 6.50932,9.18243 6.51173,9.2075 6.49732,9.24595 6.5077,9.34987 6.53491,9.44041 6.5641,9.52947 6.56607,9.52799 6.57096,9.52741 6.5687,9.54261 6.56549,9.56802 6.56454,9.57822 6.54746,9.60396 c -0.0033,0.16402 0.00953,0.3125 0.01171,0.48284 -0.02406,0.3385 -0.03746,0.6553 -0.05087,0.972 -0.13828,0 -0.27656,0 -0.44071,-0.0276 C 6.04172,10.5401 6.04172,10.0766 6.04172,9.611 c -0.19748,0 -0.34632,0 -0.52509,0 0,0.497 0,0.9724 0,1.4478 z"
           fill="#5ed4c0"
           id="path1" /><path
           d="M 5.54297,11.0588 C 5.51672,10.5834 5.51672,10.108 5.51672,9.61102 c 0.17877,0 0.32761,0 0.52509,0 0,0.46558 0,0.92908 -4e-5,1.42028 -0.15755,0.0275 -0.31505,0.0275 -0.4988,0.0275 z"
           fill="#81d8df"
           id="path2" /><path
           d="M 2.08093,0.589605 C 2.09271,0.427632 2.10449,0.265659 2.12479,0.0812478 2.25241,0.0588096 2.37151,0.0588096 2.51635,0.0851748 2.54229,0.269982 2.54249,0.428424 2.51704,0.587303 2.37195,0.588404 2.25251,0.589068 2.12004,0.589443 2.10701,0.589154 2.08093,0.589605 2.08093,0.589605 Z"
           fill="#62d3be"
           id="path3" /><path
           d="M 2.54269,0.58686 C 2.54249,0.428418 2.54229,0.269976 2.54187,0.0851693 2.66076,0.0588041 2.77986,0.0588041 2.93399,0.080425 2.98309,0.262886 2.99717,0.423726 3.00945,0.587619 3.00766,0.590672 3.00371,0.596485 2.97851,0.593316 2.8171,0.588666 2.68089,0.587185 2.54408,0.586029 2.54346,0.586353 2.54269,0.58686 2.54269,0.58686 Z"
           fill="#80d6db"
           id="path4" /><path
           d="m 0.601912,7.47952 c 0,0 -0.024412,0.0086 -0.033987,-1.6e-4 C 0.55835,6.88113 0.55835,6.29167 0.55835,5.67464 0.55835,5.64707 0.575087,5.62729 0.593485,5.65817 0.615845,5.81124 0.619806,5.93343 0.622043,6.08231 0.62065,6.26943 0.620981,6.42985 0.619266,6.61747 0.612118,6.92295 0.607015,7.20123 0.601912,7.47952 Z"
           fill="#a3e8d5"
           id="path5" /><path
           d="m 4.52584,11 c 3e-5,0.0098 7e-5,0.0196 -3.8e-4,0.0441 C 4.0571,11.0588 3.58921,11.0588 3.09399,11.0588 3.06698,11.0325 3.06731,11.0061 3.09495,10.9641 3.59011,10.9656 4.05798,10.9828 4.52584,11 Z"
           fill="#5dbf99"
           id="path6" /><path
           d="m 7.55838,8.05884 c 0,0.31499 0,0.62999 -0.01453,0.97265 C 7.52931,9.05916 7.50024,9.05928 7.49877,9.06092 7.4973,9.06256 7.49298,9.06332 7.4953,9.03548 7.49847,8.69145 7.49932,8.37525 7.51472,8.05904 c 0.01456,-10e-6 0.04366,-2e-4 0.04366,-2e-4 z"
           fill="#a2e8e0"
           id="path7" /><path
           d="m 7.55829,8.03133 c 0,0.02751 -0.0291,0.0277 -0.04444,0.02875 C 7.49852,8.06113 7.49602,8.0618 7.4974,8.03403 7.5016,7.69195 7.50443,7.37762 7.52003,7.06241 7.53281,7.06152 7.55829,7.05884 7.55829,7.05884 c 0,0.31499 0,0.62999 0,0.97249 z"
           fill="#b5e8ed"
           id="path8" /><path
           d="M 7.49304,5.06623 C 7.5039,5.06471 7.51475,5.0632 7.54199,5.06024 7.55837,5.21766 7.55837,5.37652 7.54467,5.56192 7.53096,5.58845 7.50375,5.59171 7.50231,5.57938 7.50086,5.56705 7.49976,5.54225 7.50067,5.51535 7.49869,5.36521 7.4958,5.24197 7.49506,5.10561 7.49721,5.09249 7.49304,5.06623 7.49304,5.06623 Z"
           fill="#bdb8b7"
           id="path9" /><path
           d="m 7.55835,6.0588 c 0,0.15887 0,0.31773 -0.01446,0.50264 C 7.52943,6.58749 7.50049,6.58757 7.4998,6.56114 7.49848,6.37539 7.49784,6.21607 7.49834,6.05719 7.49946,6.05763 7.5012,6.05934 7.51549,6.05922 7.52978,6.05909 7.55835,6.0588 7.55835,6.0588 Z"
           fill="#b5e8ed"
           id="path10" /><path
           d="m 7.50049,6.58759 c 0,0 0.02894,-8e-5 0.0434,2.8e-4 0.01446,0.13981 0.01446,0.27926 0.01446,0.44483 0,0.02613 -0.02548,0.02881 -0.04173,0.02742 C 7.50037,7.05874 7.49345,7.05441 7.49619,7.02941 7.49799,6.88682 7.49706,6.76923 7.49728,6.63564 7.49911,6.60895 7.4998,6.59827 7.50049,6.58759 Z"
           fill="#9de4cc"
           id="path11" /><path
           d="m 4.55378,5.05078 c 0.148,0.00209 0.296,0.00417 0.4732,0.0026 C 5.05618,5.04972 5.06231,5.05619 5.05824,5.08361 5.05221,6.21134 5.05025,7.31164 5.02151,8.41186 4.68332,8.41188 4.37192,8.41198 4.05979,8.38668 4.06004,8.25961 4.06101,8.15794 4.07557,8.05694 4.08916,8.0576 4.11643,8.05699 4.14266,8.05763 4.29895,8.05235 4.42901,8.04644 4.60755,8.03833 4.57913,7.51643 4.55249,7.02739 4.52581,6.51157 4.52547,6.34233 4.52517,6.19986 4.52487,6.03117 4.51467,5.57679 4.61527,5.5818 4.09161,5.5912 4.08218,5.59137 4.07276,5.59219 4.06185,5.56615 4.06055,5.3813 4.06074,5.22299 4.05937,5.06137 4.05779,5.05806 4.05519,5.05119 4.08229,5.05354 4.25751,5.05418 4.40564,5.05248 4.55378,5.05078 Z"
           fill="#5fd5bf"
           id="path12" /><path
           d="M 6.04283,5.52648 C 6.19105,5.52671 6.33927,5.52695 6.52023,5.52464 6.55297,5.5221 6.56842,5.52997 6.57175,5.54511 6.59082,5.57325 6.60655,5.58623 6.61168,5.62066 6.58924,5.74705 6.56751,5.85195 6.56712,5.95694 6.56396,6.79457 6.56484,7.63222 6.55235,8.47617 6.52504,8.49368 6.51428,8.5082 6.49322,8.52686 6.46874,8.5285 6.45896,8.52932 6.42214,8.52939 6.1409,8.52575 5.8867,8.52285 5.62168,8.50174 5.58215,8.34017 5.55345,8.19681 5.55078,8.055 c 0.17499,0.00155 0.32395,0.00155 0.48939,0.00155 0,-0.54258 0,-1.02985 6.7e-4,-1.54382 6.7e-4,-0.16861 6.6e-4,-0.31052 7e-4,-0.47879 3.3e-4,-0.16739 6e-4,-0.30842 9.1e-4,-0.46395 4e-5,-0.01451 3.8e-4,-0.04351 3.8e-4,-0.04351 z"
           fill="#5fd4c0"
           id="path13" /><path
           d="M 3.06992,5.05145 C 3.21858,5.05128 3.36723,5.0511 3.54906,5.0473 3.58224,5.04366 3.59465,5.05693 3.59369,5.07204 3.59263,5.09725 3.59254,5.10734 3.59168,5.14363 3.57215,5.37277 3.53521,5.57595 3.53775,5.77864 3.54898,6.67564 3.57156,7.57251 3.57527,8.47007 3.55067,8.47136 3.54083,8.472 3.50568,8.47221 3.36234,8.47031 3.24431,8.46883 3.11757,8.4489 3.07474,8.32737 3.04062,8.2243 3.02417,8.10371 3.05002,7.58478 3.0582,7.08338 3.06629,6.55583 3.06624,6.37193 3.06627,6.2142 3.06648,6.03037 3.06655,5.86301 3.06644,5.72175 3.06624,5.55449 3.06247,5.37199 3.0588,5.21549 3.05796,5.05537 3.06078,5.05175 3.06992,5.05145 3.06992,5.05145 Z"
           fill="#5fd5c0"
           id="path14" /><path
           d="m 3.06286,3.17666 c 0.00388,0.39291 0.00776,0.78583 0.00961,1.22186 1.4e-4,0.05388 0.00231,0.06464 0.00448,0.0754 0,0 -0.00914,-0.00222 -0.03252,-0.00351 C 2.978,4.50566 2.93496,4.54219 2.86765,4.58181 2.76197,4.58312 2.68057,4.58134 2.59585,4.55589 2.57596,4.06062 2.55939,3.58903 2.55847,3.11692 2.58456,3.11589 2.59499,3.11536 2.62833,3.11498 2.77024,3.09634 2.88924,3.07756 3.00844,3.05951 c 2e-4,7.4e-4 -0.00104,0.00162 1.8e-4,0.01863 0.01889,0.04418 0.03656,0.07135 0.05424,0.09852 z"
           fill="#61d5c0"
           id="path15" /><path
           d="M 6.0428,5.50132 C 6.04284,5.5265 6.0425,5.55551 6.01634,5.57087 5.83619,5.5893 5.6822,5.59237 5.52496,5.569 5.52085,5.38477 5.52,5.22698 5.53214,5.06448 c 0.013,-0.00471 0.039,-0.01409 0.06473,-0.0112 0.14634,0.00182 0.26697,7.6e-4 0.38759,-3e-4 0.01944,0.14105 0.03887,0.28211 0.05834,0.44834 z"
           fill="#63d4c0"
           id="path16" /><path
           d="M 5.52087,4.11144 C 5.67561,4.10772 5.83034,4.104 5.98507,4.10028 5.98614,4.24446 5.98721,4.38864 5.96575,4.5591 5.82065,4.58326 5.6981,4.58114 5.5655,4.55826 5.54393,4.39548 5.5324,4.25346 5.52087,4.11144 Z"
           fill="#84d6de"
           id="path17" /><path
           d="M 5.50597,4.09311 C 5.53245,4.25347 5.54398,4.39548 5.55084,4.56179 5.5362,4.58751 5.52622,4.58895 5.49058,4.58449 5.34162,4.58079 5.21833,4.58301 5.09504,4.58522 4.96613,4.11844 5.03136,4.03435 5.50597,4.09311 Z"
           fill="#62d0bd"
           id="path18" /><path
           d="M 6.56903,5.05267 C 6.54312,4.91005 6.51722,4.76743 6.48254,4.57648 c 0.20309,0 0.35141,0 0.52649,-7e-4 0.02677,-7e-4 0.02084,0.00897 0.02199,0.0397 C 7.03306,4.78207 7.03394,4.91792 7.01932,5.05745 6.99391,5.06495 6.98399,5.06878 6.95241,5.06956 6.88717,5.06853 6.84358,5.07056 6.7772,5.06769 6.69261,5.05942 6.63082,5.05604 6.56903,5.05267 Z"
           fill="#62d1be"
           id="path19" /><path
           d="M 5.51624,4.59037 C 5.52621,4.58893 5.53619,4.58749 5.56088,4.58253 5.69814,4.58113 5.8207,4.58325 5.96425,4.58213 5.99079,4.72293 5.99633,4.86696 5.99315,5.03198 5.86382,5.05402 5.74319,5.05508 5.58798,5.03236 5.54101,4.86917 5.52862,4.72977 5.51624,4.59037 Z"
           fill="#7f6467"
           id="path20" /><path
           d="m 2.59911,4.57959 c 0.0814,0.00178 0.16281,0.00356 0.28821,0.00569 0.0706,0.00251 0.0972,0.00469 0.12381,0.00686 C 3.0299,4.72931 3.04868,4.86648 3.06866,5.02756 3.06987,5.05147 3.06074,5.05177 3.03268,5.05518 2.8495,5.05593 2.69438,5.05325 2.54017,5.02545 2.53955,4.86577 2.53801,4.73121 2.55217,4.59252 2.57828,4.58545 2.58869,4.58252 2.59911,4.57959 Z"
           fill="#806667"
           id="path21" /><path
           d="M 3.59864,4.57881 C 3.59642,4.54991 3.5927,4.52103 3.59218,4.4921 3.58432,4.05695 3.58442,4.05694 4.03236,4.08964 4.05854,4.23602 4.05906,4.35338 4.05923,4.48429 4.05888,4.49783 4.0598,4.52492 4.05852,4.53565 4.05725,4.54638 4.05428,4.56779 4.05331,4.5737 4.05234,4.57962 4.0568,4.59073 4.03161,4.58642 3.87049,4.58101 3.73457,4.57991 3.59864,4.57881 Z"
           fill="#52c99c"
           id="path22" /><path
           d="M 3.0098,2.11877 C 3.01367,2.26125 3.01754,2.40372 2.99787,2.56784 2.97432,2.58948 2.94921,2.59706 2.92433,2.59377 2.79837,2.58572 2.69729,2.58095 2.59362,2.55492 2.59255,2.39774 2.59407,2.26181 2.62137,2.12308 2.76802,2.11978 2.88891,2.11928 3.0098,2.11877 Z"
           fill="#7c6367"
           id="path23" /><path
           d="m 5.49058,4.58447 c 0.03805,0.14531 0.05043,0.2847 0.07168,0.445 C 5.57112,5.05037 5.54512,5.05975 5.50662,5.06087 5.33283,5.06005 5.19754,5.05811 5.06225,5.05618 c 0,0 -0.00613,-0.00647 -0.01037,-0.00521 0.00957,-0.13869 0.02338,-0.27866 0.04018,-0.4422 0.12628,-0.02578 0.24957,-0.028 0.39852,-0.0243 z"
           fill="#5e4344"
           id="path24" /><path
           d="M 3.59939,4.8254 C 3.59644,4.78059 3.59349,4.73578 3.62038,4.66905 3.78477,4.64716 3.91934,4.64718 4.0562,4.64722 4.05849,4.64723 4.06305,4.64747 4.06149,4.67255 4.06014,4.79806 4.06034,4.89851 4.05925,5.01201 4.05794,5.02507 4.05512,5.05117 4.05512,5.05117 c 0,0 0.0026,0.00687 -0.02169,0.00806 C 3.88816,5.05577 3.76717,5.05111 3.64722,5.02646 3.63197,4.94612 3.61568,4.88576 3.59939,4.8254 Z"
           fill="#5e4344"
           id="path25" /><path
           d="M 4.05956,4.47077 C 4.05904,4.3534 4.05852,4.23604 4.05762,4.09369 4.18485,4.07055 4.31246,4.07239 4.45387,4.11872 4.53253,4.5368 4.27133,4.47043 4.05956,4.47077 Z"
           fill="#61d4be"
           id="path26" /><path
           d="M 6.79996,5.07255 C 6.84355,5.07052 6.88713,5.0685 6.95956,5.08004 7.0004,5.10614 7.0146,5.11514 7.03208,5.14549 7.03402,5.2704 7.0349,5.37045 7.03316,5.47035 7.03054,5.47022 7.02532,5.47048 6.99937,5.47061 6.83325,5.47004 6.69308,5.46935 6.5529,5.46865 6.54878,5.44338 6.54466,5.41811 6.56561,5.36224 6.60253,5.26042 6.61438,5.18921 6.64502,5.1179 6.70918,5.10272 6.75457,5.08764 6.79996,5.07255 Z"
           fill="#5c4342"
           id="path27" /><path
           d="M 3.02963,2.10346 C 2.88895,2.11926 2.76806,2.11976 2.62204,2.11979 2.5969,2.11931 2.60104,2.1141 2.60041,2.09488 2.59901,2.05 2.59823,2.02435 2.59827,1.99936 2.59909,2.00002 2.59923,1.99815 2.6244,1.99863 2.92537,2.04141 3.0312,1.92958 3.01322,1.64393 2.99132,1.29598 3.00527,0.945735 3.00371,0.596484 c 0,0 0.00394,-0.005812 0.00574,-0.008866 0.00179,-0.003053 0.0301,0.001057 0.04442,9.15e-4 C 3.06194,1.08831 3.05568,1.58823 3.02963,2.10346 Z"
           fill="#81cec1"
           id="path28" /><path
           d="M 4.08223,5.05352 C 4.05514,5.05117 4.05796,5.02507 4.08486,5.01235 4.14987,4.99969 4.18802,4.99862 4.22609,5.00003 4.35759,5.0049 4.50413,5.00077 4.45602,4.81602 4.43756,4.74511 4.31653,4.69238 4.23264,4.65131 4.1864,4.62867 4.12025,4.6474 4.06307,4.64747 c 0,0 -0.00456,-2.4e-4 -0.00551,-0.01434 C 4.05662,4.61902 4.0568,4.59072 4.0568,4.59072 c 0,0 -0.00446,-0.01111 0.01261,-0.01126 C 4.09772,4.57775 4.10897,4.5762 4.14283,4.57618 4.28098,4.5667 4.39651,4.55569 4.51204,4.54468 4.52519,4.69653 4.53835,4.84838 4.55261,5.02549 4.40559,5.05246 4.25746,5.05416 4.08223,5.05352 Z"
           fill="#676264"
           id="path29" /><path
           d="M 4.51651,4.51904 C 4.39656,4.5557 4.28104,4.56671 4.13485,4.56573 4.09088,4.54184 4.07611,4.53223 4.05986,4.52492 c 0,0 -9.3e-4,-0.02708 -5.8e-4,-0.04063 C 4.2714,4.47041 4.53261,4.53678 4.4686,4.13721 4.48663,4.23862 4.50378,4.366 4.51651,4.51904 Z"
           fill="#6bd3c1"
           id="path30" /><path
           d="M 6.54556,5.48205 C 6.69303,5.46938 6.83321,5.47007 7.001,5.48514 7.02745,5.51881 7.02575,5.53806 7.02386,5.56317 7.02422,5.56908 7.02717,5.58055 7.00313,5.57831 6.88211,5.57343 6.78513,5.57079 6.67588,5.55756 6.63187,5.54131 6.60012,5.53566 6.56837,5.53001 c 0,0 -0.01545,-0.00787 -0.02393,-0.00602 C 6.53673,5.5157 6.53749,5.50556 6.54556,5.48205 Z"
           fill="#453f3b"
           id="path31" /><path
           d="M 4.03158,4.58643 C 4.05677,4.59074 4.05659,4.61904 4.05524,4.63313 3.91933,4.64719 3.78476,4.64717 3.62492,4.64702 3.59757,4.63562 3.59549,4.62434 3.59601,4.59594 3.73454,4.57992 3.87047,4.58102 4.03158,4.58643 Z"
           fill="#453f3b"
           id="path32" /><path
           d="M 3.02719,4.5826 C 2.98455,4.58997 2.95795,4.58779 2.91162,4.58219 2.93493,4.54223 2.97797,4.5057 3.04037,4.46802 3.05423,4.50227 3.04873,4.53766 3.02719,4.5826 Z"
           fill="#7fd1c4"
           id="path33" /><path
           d="M 3.59563,4.84766 C 3.61568,4.88578 3.63197,4.94614 3.64764,5.03171 3.64701,5.05693 3.6506,5.06677 3.63675,5.06343 3.6229,5.06008 3.59458,5.05693 3.59458,5.05693 c 0,0 -0.0124,-0.01326 -0.02146,-0.01343 2.2e-4,-0.05798 0.00949,-0.1158 0.02251,-0.19584 z"
           fill="#453f3b"
           id="path34" /><path
           d="M 6.62618,5.11799 C 6.61433,5.1892 6.60248,5.26041 6.57285,5.34418 6.54957,5.29154 6.54408,5.22635 6.56386,5.13869 6.60148,5.11681 6.61383,5.1174 6.62618,5.11799 Z"
           fill="#453f3b"
           id="path35" /><path
           d="M 6.64506,5.11794 C 6.61393,5.11745 6.60157,5.11686 6.57071,5.11498 6.55103,5.10242 6.54987,5.09116 6.55887,5.06628 6.63083,5.05605 6.69262,5.05943 6.77721,5.0677 6.75461,5.08767 6.70922,5.10276 6.64506,5.11794 Z"
           fill="#495b58"
           id="path36" /><path
           d="M 3.00854,3.07816 C 3.01793,3.0609 3.02854,3.06065 3.05507,3.05945 3.07128,3.08498 3.07158,3.11147 3.06733,3.15731 3.04511,3.14951 3.02744,3.12234 3.00854,3.07816 Z"
           fill="#7fd1c4"
           id="path37" /><path
           d="m 2.53929,5.0506 c 0.15513,0.00267 0.31025,0.00534 0.4906,0.00822 0.0289,0.1567 0.03257,0.3132 0.00982,0.49708 -0.17587,0.02737 -0.32531,0.02737 -0.47714,0.02737 0,0.18262 0,0.3134 0,0.47323 0.1803,0 0.34201,0 0.50373,0 -4e-5,0.15773 -7e-5,0.31547 -0.02204,0.50003 C 2.87693,6.58465 2.73155,6.58595 2.56479,6.59455 2.52341,7.00926 2.49922,7.41653 2.48712,7.82417 2.48483,7.90116 2.53058,7.9796 2.57392,8.06852 2.73127,8.09354 2.86888,8.1074 3.00648,8.12127 3.04061,8.22434 3.07473,8.32741 3.10291,8.46017 3.08917,8.52499 3.08136,8.56013 3.06612,8.60926 3.04475,8.65027 3.03083,8.67727 3.01343,8.72946 3.00857,8.85632 3.00719,8.95801 3.00739,9.05966 3.00898,9.05961 3.00871,9.05642 2.98322,9.05723 2.83865,9.05863 2.71957,9.05922 2.58203,9.06169 2.56321,9.12117 2.56285,9.17878 2.56986,9.2574 2.57509,9.32252 2.57296,9.36663 2.54959,9.4156 2.39411,9.43842 2.25986,9.45637 2.12561,9.47433 2.1181,9.46843 2.10404,9.46258 2.104,9.45663 2.10204,9.14802 1.99236,8.96086 1.60718,9.07918 c 0,-0.1705 0,-0.30132 0.02425,-0.46104 C 1.79826,8.55038 2.03865,8.68698 2.06093,8.43597 2.08545,8.15986 2.03574,7.87704 2.01837,7.59715 c 0,0 -0.00328,-0.00923 0.01051,-0.01029 C 2.04267,7.58579 2.06899,7.58507 2.08642,7.5727 2.09693,7.4523 2.09001,7.34427 2.08309,7.23625 2.08073,7.05718 2.07838,6.87811 2.0945,6.6558 2.10299,6.46758 2.09299,6.3226 2.08298,6.17761 2.07896,5.8814 2.07493,5.58518 2.07434,5.24799 2.08239,5.19763 2.08699,5.18825 2.10301,5.16657 2.11874,5.12162 2.12307,5.08898 2.1274,5.05633 c 0,0 0.00223,-0.00253 0.02928,-4.6e-4 C 2.30225,5.05549 2.42077,5.05304 2.53929,5.0506 Z"
           fill="#4ecb9b"
           id="path38" /><path
           d="M 0.621289,6.59028 C 0.620958,6.42986 0.620628,6.26944 0.647276,6.08346 0.811082,6.05774 0.947909,6.05759 1.08474,6.05743 1.65686,6.06781 1.61011,5.97784 1.60629,6.5869 1.60443,6.88434 1.5846,7.18167 1.53952,7.50312 1.40297,7.54186 1.29982,7.55654 1.1796,7.57443 1.15138,7.58085 1.14025,7.58406 1.12911,7.58727 1.1117,7.5854 1.09838,7.57696 1.08611,7.52214 1.08335,7.3083 1.08396,7.13426 1.0839,6.96022 1.08376,6.58755 1.08362,6.58752 0.707555,6.58845 0.678799,6.58853 0.650044,6.58965 0.621289,6.59028 Z"
           fill="#61d4be"
           id="path39" /><path
           d="M 1.12455,7.61046 C 1.14023,7.58402 1.15136,7.58081 1.20505,7.58051 1.36934,7.58313 1.49106,7.58285 1.61279,7.58257 1.73125,7.58486 1.84972,7.58714 1.99325,7.59326 2.03568,7.877 2.08538,8.15981 2.06087,8.43593 2.03859,8.68694 1.7982,8.55034 1.62992,8.59207 1.58829,8.5844 1.57235,8.57385 1.55307,8.52244 1.54343,8.01705 1.61466,8.06361 1.12051,8.06003 1.11106,8.05997 1.10161,8.06065 1.09216,8.06098 1.10145,7.91855 1.11073,7.77612 1.12455,7.61046 Z"
           fill="#7d6467"
           id="path40" /><path
           d="M 2.59584,4.55593 C 2.58875,4.58254 2.57833,4.58546 2.52739,4.58919 2.36923,4.59016 2.2516,4.59031 2.13396,4.59047 c 0,0 -0.00315,0.00138 -0.00241,-0.02551 C 2.11613,4.37874 2.09997,4.21941 2.08381,4.06009 2.08139,3.84197 2.07898,3.62385 2.09443,3.36306 2.11957,3.23395 2.12683,3.14751 2.15777,3.06055 2.3019,3.07918 2.42236,3.09833 2.54282,3.11748 2.55938,3.58907 2.57595,4.06067 2.59584,4.55593 Z"
           fill="#4eca9c"
           id="path41" /><path
           d="M 2.13313,0.589761 C 2.25257,0.589097 2.372,0.588433 2.51709,0.587332 2.54275,0.586894 2.54352,0.586388 2.54301,0.613883 2.56143,1.09365 2.58036,1.54591 2.59929,1.99818 c 0,0 -1.5e-4,0.00188 -0.02653,0.00154 C 2.39412,1.99765 2.24186,1.99592 2.0896,1.99418 c 0,0 -0.00955,0.0038 -0.01172,-0.00988 C 2.07265,1.96084 2.06959,1.95107 2.06653,1.9413 2.06932,1.93114 2.07211,1.92098 2.09482,1.87723 2.12087,1.42568 2.127,1.00772 2.13313,0.589761 Z"
           fill="#4dca9b"
           id="path42" /><path
           d="M 2.59623,2.12262 C 2.59408,2.26183 2.59255,2.39776 2.58029,2.56004 2.56955,2.5864 2.54341,2.59793 2.51749,2.5949 2.36978,2.59367 2.248,2.59546 2.12621,2.59725 2.10955,2.45468 2.09288,2.31212 2.1058,2.14378 2.29059,2.11672 2.4458,2.11543 2.601,2.11414 c 0,0 -0.00413,0.00521 -0.00477,0.00848 z"
           fill="#554240"
           id="path43" /><path
           d="M 2.1169,2.61794 C 2.24806,2.59543 2.36985,2.59364 2.51705,2.61951 2.56345,2.80306 2.58442,2.95896 2.60539,3.11485 2.59495,3.11538 2.58452,3.11591 2.55843,3.11694 2.42232,3.0983 2.30187,3.07915 2.15223,3.04789 2.11296,3.01967 2.099,3.00842 2.08118,3.00205 2.08996,2.88092 2.09874,2.75979 2.1169,2.61794 Z"
           fill="#5dd3bf"
           id="path44" /><path
           d="M 1.08427,6.03222 C 0.947888,6.05755 0.811061,6.05771 0.648979,6.05672 0.619763,5.9334 0.615801,5.81121 0.605347,5.66313 1.01546,5.474 1.08213,5.52484 1.08427,6.03222 Z"
           fill="#4fc69b"
           id="path45" /><path
           d="M 2.12599,4.61159 C 2.25155,4.59027 2.36919,4.59011 2.51165,4.59329 2.53802,4.73118 2.53956,4.86574 2.54018,5.02543 2.42074,5.053 2.30222,5.05545 2.15831,5.0561 2.12797,4.91379 2.12302,4.77327 2.12599,4.61159 Z"
           fill="#5e4344"
           id="path46" /><path
           d="M 2.12011,0.589458 C 2.12701,1.00771 2.12088,1.42566 2.09936,1.86207 2.08026,1.46834 2.07656,1.05615 2.07693,0.616793 2.081,0.58962 2.10707,0.589169 2.12011,0.589458 Z"
           fill="#69c0a0"
           id="path47" /><path
           d="M 2.60039,2.09488 C 2.44581,2.1154 2.2906,2.11669 2.10983,2.11872 2.08278,2.09142 2.08131,2.06338 2.08468,2.01475 2.24178,1.99589 2.39404,1.99762 2.57187,1.99903 2.59821,2.02435 2.59899,2.05001 2.60039,2.09488 Z"
           fill="#69c0a0"
           id="path48" /><path
           d="M 2.07874,4.08533 C 2.09992,4.21936 2.11608,4.37869 2.13028,4.56369 2.11012,4.42978 2.09192,4.2702 2.07874,4.08533 Z"
           fill="#68c7a4"
           id="path49" /><path
           d="m 2.07798,6.20319 c 0.015,0.11937 0.025,0.26435 0.02013,0.42595 C 2.07981,6.50677 2.0764,6.36779 2.07798,6.20319 Z"
           fill="#68c7a4"
           id="path50" /><path
           d="M 1.60604,7.56981 C 1.4911,7.58287 1.36937,7.58315 1.22217,7.57731 1.29984,7.55652 1.40299,7.54184 1.52951,7.52527 c 0.042,0.00488 0.05746,0.0161 0.07653,0.04454 z"
           fill="#81a29c"
           id="path51" /><path
           d="M 2.07745,3.02685 C 2.09903,3.00845 2.11299,3.0197 2.12859,3.04845 2.12683,3.14751 2.11957,3.23395 2.0978,3.33605 2.0801,3.25167 2.07689,3.15164 2.07745,3.02685 Z"
           fill="#68c7a4"
           id="path52" /><path
           d="M 2.0781,7.26025 C 2.08992,7.34426 2.09683,7.45229 2.08712,7.55837 2.07049,7.55642 2.06238,7.52892 2.06238,7.52892 2.06599,7.44737 2.0696,7.36582 2.0781,7.26025 Z"
           fill="#68c7a4"
           id="path53" /><path
           d="M 2.11411,5.06281 C 2.12299,5.08895 2.11867,5.1216 2.09691,5.15131 2.07565,5.13817 2.07182,5.12796 2.06799,5.11775 2.07896,5.1016 2.08994,5.08545 2.11411,5.06281 Z"
           fill="#68c7a4"
           id="path54" /><path
           d="M 4.52609,10.9724 C 4.05802,10.9828 3.59016,10.9656 3.09873,10.9446 3.07195,10.718 3.08048,10.494 3.05891,10.2729 3.0517,10.1989 2.95932,10.0676 2.92008,10.0727 2.50892,10.1266 2.51694,9.86776 2.54434,9.55946 2.54598,9.53117 2.55253,9.52544 2.56164,9.52717 2.57074,9.5289 2.58932,9.53118 2.61544,9.53104 2.76297,9.5282 2.88439,9.5255 3.01382,9.53362 3.03612,9.51887 3.05041,9.4933 3.06503,9.46843 3.06537,9.46912 3.06341,9.46818 3.0814,9.45357 3.11901,9.33842 3.13863,9.23787 3.16158,9.12024 c 0.46578,0 0.916,0 1.36622,0 -5e-4,0.60821 -0.00101,1.21646 -0.00171,1.85216 z"
           fill="#4dcb9b"
           id="path55" /><path
           d="M 0.619271,6.61749 C 0.650072,6.58966 0.678826,6.58854 0.707583,6.58847 1.08365,6.58753 1.08379,6.58757 1.08392,6.96024 1.08399,7.13428 1.08338,7.30831 1.08225,7.51055 0.936759,7.5251 0.79209,7.51146 0.62467,7.48868 0.60702,7.20126 0.612123,6.92297 0.619271,6.61749 Z"
           fill="#4cca9b"
           id="path56" /><path
           d="M 1.08824,8.0865 C 1.10161,8.06067 1.11106,8.05999 1.12051,8.06006 1.61467,8.06364 1.54343,8.01708 1.54921,8.5083 1.52996,8.53352 1.51124,8.53105 1.49248,8.53071 1.08108,8.52335 1.08108,8.5234 1.08824,8.0865 Z"
           fill="#5c4342"
           id="path57" /><path
           d="M 2.1394,9.49385 C 2.25977,9.45636 2.39402,9.43841 2.54929,9.43573 2.56614,9.46375 2.56195,9.4765 2.55559,9.49496 2.55342,9.50068 2.55244,9.52544 2.55244,9.52544 c 0,0 -0.00654,0.00573 -0.00999,0.00836 C 2.41043,9.52875 2.28186,9.52106 2.1394,9.49385 Z"
           fill="#5dbf99"
           id="path58" /><path
           d="m 7.03273,9.58693 c 3.3e-4,0.01957 9.2e-4,0.03914 9.4e-4,0.05871 5e-4,0.40996 4.9e-4,0.40996 -0.43844,0.41756 C 6.55708,9.91648 6.54425,9.76799 6.56718,9.60418 6.65031,9.57377 6.69766,9.5587 6.76893,9.54245 6.87262,9.53832 6.9524,9.53538 7.03264,9.54605 c 4.5e-4,0.01363 9e-5,0.04088 9e-5,0.04088 z"
           fill="#50c699"
           id="path59" /><path
           d="M 7.03218,9.53247 C 6.9524,9.53541 6.87261,9.53836 6.74747,9.53783 6.65843,9.53206 6.61474,9.52976 6.57105,9.52746 c 0,0 -0.00489,5.8e-4 -0.00503,-0.02087 C 6.54867,9.40097 6.53145,9.3168 6.51423,9.23262 6.51182,9.20755 6.50941,9.18248 6.52066,9.13242 6.54446,9.09076 6.55459,9.07409 6.59033,9.05789 6.8724,9.03471 7.09063,9.05837 7.04082,9.42593 7.03912,9.4526 7.0404,9.46334 7.03927,9.48866 7.03529,9.51299 7.03374,9.52273 7.03218,9.53247 Z"
           fill="#776566"
           id="path60" /><path
           d="M 4.54107,9.11873 C 4.07754,9.12023 3.62732,9.12023 3.16154,9.12023 3.13859,9.23787 3.11897,9.33841 3.07458,9.43462 3.0361,9.30566 3.02238,9.18103 3.00867,9.0564 c 0,0 2.6e-4,0.00319 0.0262,0.00367 0.51307,-0.00255 1.00019,-0.00559 1.50289,-0.00605 0.02589,0.00453 0.03623,0.00649 0.04565,0.0217 -9.2e-4,0.01325 -0.0023,0.03979 -0.0023,0.03979 0,0 -0.02673,0.00172 -0.04004,0.00322 z"
           fill="#63b290"
           id="path61" /><path
           d="M 4.60866,9.1163 C 4.58111,9.11548 4.58249,9.08895 4.61063,9.07408 5.28198,9.05967 5.92519,9.06014 6.56762,9.05963 6.56684,9.05865 6.56467,9.05737 6.56467,9.05737 6.55453,9.07404 6.5444,9.09072 6.52061,9.11346 5.88338,9.11874 5.2598,9.11793 4.60866,9.1163 Z"
           fill="#75c3b3"
           id="path62" /><path
           d="M 6.49731,9.24597 C 6.53136,9.31677 6.54858,9.40094 6.56395,9.50804 6.53491,9.44042 6.5077,9.34989 6.49731,9.24597 Z"
           fill="#75c3b3"
           id="path63" /><path
           d="M 6.56871,9.54266 C 6.61466,9.52976 6.65835,9.53206 6.72349,9.53901 6.69759,9.55874 6.65023,9.57381 6.58324,9.58868 6.56455,9.57827 6.5655,9.56807 6.56871,9.54266 Z"
           fill="#589484"
           id="path64" /><path
           d="M 7.03259,9.54607 C 7.03369,9.52271 7.03525,9.51297 7.05253,9.48771 7.06825,9.47219 7.09499,9.47052 7.12003,9.47058 7.51664,9.53741 7.43398,9.26616 7.45562,9.0628 c 0.01244,-4.7e-4 0.03732,5.1e-4 0.03732,5.1e-4 0,0 0.00433,-7.6e-4 0.0058,-0.0024 0.00249,0.13915 0.00352,0.27994 0.00647,0.4472 C 7.36467,9.5477 7.22221,9.56081 7.05622,9.58044 7.03269,9.58695 7.03305,9.5597 7.03259,9.54607 Z"
           fill="#4db891"
           id="path65" /><path
           d="M 2.62442,1.99864 C 2.58032,1.54588 2.56139,1.09362 2.54358,0.613528 2.68091,0.587189 2.81711,0.588671 2.97852,0.593321 3.00529,0.94574 2.99134,1.29598 3.01324,1.64393 3.03122,1.92959 2.92539,2.04142 2.62442,1.99864 Z"
           fill="#5fd4bf"
           id="path66" /><path
           d="M 7.03476,5.05374 C 7.03388,4.91788 7.03299,4.78203 7.0304,4.62109 7.14869,4.62089 7.26869,4.64577 7.42548,4.67827 7.4346,4.77845 7.44534,4.89653 7.42509,5.03593 7.31254,5.06203 7.23097,5.06682 7.13002,5.06887 7.08468,5.06764 7.05871,5.06915 7.03346,5.06646 7.03418,5.06225 7.03476,5.05374 7.03476,5.05374 Z"
           fill="#80d7de"
           id="path67" /><path
           d="M 7.14941,5.07163 C 7.23098,5.06684 7.31255,5.06206 7.41864,5.05481 7.44315,5.05234 7.46791,5.05994 7.48045,5.0631 7.493,5.06625 7.49716,5.09251 7.48195,5.10529 7.46673,5.11806 7.44055,5.11833 7.42137,5.11821 7.37659,5.11831 7.35098,5.11852 7.30584,5.11836 7.26025,5.11821 7.23421,5.11841 7.19627,5.11368 7.16905,5.09989 7.1574,5.08752 7.14941,5.07163 Z"
           fill="#687578"
           id="path68" /><path
           d="M 7.49525,9.03545 C 7.49293,9.06328 7.46805,9.06231 7.42946,9.06128 7.28017,9.05446 7.16947,9.04865 7.03088,9.04139 c 0,-0.34661 0,-0.66316 0.02595,-0.9806 0.16371,-2.7e-4 0.30148,3.5e-4 0.43924,9.7e-4 0,0 0.00249,-6.6e-4 0.00327,-0.0017 -7e-5,0.31516 -9.2e-4,0.63136 -0.00409,0.97539 z"
           fill="#60d6c0"
           id="path69" /><path
           d="M 7.4974,8.034 C 7.35827,8.06114 7.22051,8.06052 7.0395,8.04327 6.98977,7.78461 6.97643,7.54249 6.97924,7.30056 6.98106,7.14361 7.05853,7.04632 7.23333,7.05781 7.31958,7.06347 7.40668,7.05594 7.4934,7.05438 c 0,0 0.00692,0.00433 0.01039,0.00661 C 7.50443,7.37758 7.50161,7.69191 7.4974,8.034 Z"
           fill="#81dadd"
           id="path70" /><path
           d="M 7.50228,5.57943 C 7.50271,5.73024 7.5017,5.86873 7.50094,6.0333 7.50119,6.05938 7.49945,6.05768 7.47297,6.05799 7.31063,6.05986 7.17477,6.06142 7.03697,6.03626 7.03242,5.86655 7.02982,5.72356 7.02722,5.58056 c 0,0 -0.00295,-0.01147 0.02084,-0.01067 C 7.21448,5.56122 7.3571,5.55176 7.49973,5.5423 c 0,0 0.00111,0.0248 0.00255,0.03713 z"
           fill="#63d4c0"
           id="path71" /><path
           d="M 7.50066,5.51537 C 7.35712,5.55173 7.21449,5.56119 7.04772,5.56395 7.02582,5.53804 7.02752,5.51879 7.02701,5.48499 7.02534,5.4705 7.03057,5.47023 7.05863,5.47037 7.36804,5.52006 7.49747,5.41439 7.44059,5.11832 c 0,0 0.02618,-2.6e-4 0.03925,8e-5 0.01595,0.12358 0.01884,0.24682 0.02082,0.39697 z"
           fill="#6e6162"
           id="path72" /><path
           d="M 7.03894,6.06293 C 7.1748,6.06137 7.31066,6.05981 7.47187,6.0575 c 0.02599,0.15856 0.02662,0.31789 0.02795,0.50364 0,0.03711 -6.9e-4,0.04778 -0.02344,0.06372 C 7.32482,6.60605 7.19531,6.58197 7.03894,6.5529 c 0,-0.16407 0,-0.32702 0,-0.48997 z"
           fill="#82d9dc"
           id="path73" /><path
           d="M 7.037,6.03621 C 7.03895,6.22588 7.03895,6.38883 7.03895,6.5529 7.19532,6.58197 7.32482,6.60605 7.47524,6.64087 7.49708,6.7692 7.49801,6.88679 7.49621,7.02938 7.40676,7.05593 7.31965,7.06346 7.23341,7.0578 7.0586,7.04632 6.98113,7.1436 6.97931,7.30055 6.9765,7.54248 6.98984,7.7846 7.01362,8.04415 7.03092,8.37821 7.03092,8.69477 7.03092,9.04138 7.16951,9.04864 7.2802,9.05444 7.41705,9.06174 7.43401,9.26613 7.51667,9.53737 7.11411,9.45831 7.07339,9.43025 7.06028,9.41822 7.04379,9.40994 7.09062,9.05831 6.87239,9.03466 6.59032,9.05784 6.56471,9.05737 6.56688,9.05864 6.56669,9.03665 6.54814,8.93072 6.52977,8.84678 6.5103,8.74934 6.50918,8.73584 6.50947,8.70875 6.52082,8.70328 6.53668,8.69073 6.54631,8.67889 6.54487,8.67732 6.53419,8.66561 6.52131,8.65593 6.5088,8.64611 6.50847,8.64661 6.50994,8.64618 6.50413,8.63076 6.48195,8.58695 6.46558,8.55854 6.44922,8.53013 6.459,8.52931 6.46878,8.52849 6.50622,8.52165 6.55009,8.50446 6.56031,8.4892 6.56453,8.46986 6.56488,7.63222 6.56399,6.79457 6.56715,5.95693 6.56755,5.85195 6.58928,5.74704 6.62874,5.61402 6.66698,5.58 6.6776,5.57406 6.68823,5.56812 6.78521,5.57075 6.88219,5.57339 7.00321,5.57827 7.02985,5.7235 7.03245,5.8665 7.037,6.03621 Z"
           fill="#4cc99b"
           id="path74" /><path
           d="m 3.64663,5.05168 c 0.12058,-5.7e-4 0.24157,0.0041 0.38841,0.01087 0.02567,0.16043 0.02547,0.31873 0.02536,0.52974 8e-5,0.20302 8e-5,0.35334 8e-5,0.54428 C 4.24923,6.10438 4.38703,6.08088 4.52484,6.05738 4.52513,6.19985 4.52543,6.34232 4.50303,6.51059 4.37878,6.55256 4.27723,6.56873 4.15729,6.58557 4.10986,6.60649 4.08084,6.62673 4.03598,6.66546 4.03247,7.14224 4.04479,7.60053 4.05817,8.0579 4.05923,8.05699 4.06194,8.05626 4.06194,8.05626 4.06097,8.15793 4.06001,8.25959 4.0589,8.40875 4.05849,8.48573 4.05823,8.51522 4.03877,8.55593 3.87921,8.56755 3.73883,8.56794 3.59752,8.55665 3.59658,8.54496 3.59275,8.52182 3.59219,8.50871 3.59163,8.49561 3.59,8.46941 3.59,8.46941 3.57153,7.5725 3.54895,6.67564 3.53772,5.77863 3.53518,5.57595 3.57212,5.37276 3.60386,5.13843 3.63233,5.09723 3.6436,5.0838 3.65064,5.06676 c 0,0 -0.00359,-0.00985 -0.00401,-0.01508 z"
           fill="#4cca9b"
           id="path75" /><path
           d="M 5.05818,5.08362 C 5.19753,5.05813 5.33282,5.06007 5.49361,5.0656 5.51997,5.22698 5.52083,5.38477 5.52286,5.59452 5.5201,6.13091 5.49974,6.05183 5.92854,6.0589 c 0.03764,6.3e-4 0.07529,9.6e-4 0.11294,0.00143 10e-6,0.14191 10e-6,0.28382 -0.02441,0.45081 C 5.83463,6.57322 5.67663,6.61022 5.50134,6.66291 5.49547,6.84491 5.5069,7.01122 5.51958,7.20258 5.51987,7.32795 5.5189,7.42827 5.50034,7.5458 5.47445,7.90172 5.46617,8.24044 5.43243,8.58186 5.28754,8.58255 5.1681,8.58054 5.04916,8.5577 5.04918,8.49524 5.0487,8.45359 5.04822,8.41194 5.05018,7.31164 5.05215,6.21134 5.05818,5.08362 Z"
           fill="#4cc99b"
           id="path76" /><path
           d="M 4.17571,6.58488 C 4.27726,6.56871 4.37881,6.55255 4.5031,6.53735 4.55248,7.02736 4.57912,7.51641 4.60754,8.0383 4.429,8.04642 4.29894,8.05233 4.13718,8.04548 4.0954,8.01738 4.0819,8.00624 4.06317,7.9795 4.06246,7.93319 4.06357,7.9067 4.07863,7.86758 4.0832,7.78632 4.07381,7.7177 4.06269,7.62245 4.0619,7.43574 4.06284,7.27566 4.07928,7.09935 4.12176,6.91703 4.14874,6.75095 4.17571,6.58488 Z"
           fill="#81d6de"
           id="path77" /><path
           d="m 4.52477,6.03116 c -0.1378,0.04973 -0.2756,0.07323 -0.46435,0.10542 0,-0.19094 0,-0.34125 0.00141,-0.51772 0.01084,-0.02668 0.02026,-0.0275 0.02969,-0.02767 0.52366,-0.0094 0.42306,-0.0144 0.43325,0.43997 z"
           fill="#82dbdf"
           id="path78" /><path
           d="M 5.02149,8.41187 C 5.04875,8.45359 5.04923,8.49524 5.02323,8.56123 4.83957,8.58679 4.68239,8.58801 4.50262,8.58203 4.33935,8.56479 4.19867,8.55476 4.05798,8.54472 4.05825,8.51524 4.05851,8.48576 4.05963,8.43418 4.3719,8.41198 4.6833,8.41188 5.02149,8.41187 Z"
           fill="#6bd3c1"
           id="path79" /><path
           d="M 4.06499,7.99933 C 4.08191,8.00626 4.0954,8.0174 4.11095,8.04487 4.11643,8.05699 4.08916,8.0576 4.07557,8.05693 4.06197,8.05627 4.05926,8.057 4.0596,8.04297 4.06162,8.01906 4.06331,8.0092 4.06499,7.99933 Z"
           fill="#7fe0d7"
           id="path80" /><path
           d="m 5.51864,6.64723 c 0.158,-0.037 0.316,-0.07401 0.49777,-0.10939 0.02376,0.48889 0.02376,0.97616 0.02376,1.51874 -0.16544,0 -0.3144,0 -0.4907,-0.02746 C 5.52074,7.84397 5.51934,7.68629 5.51794,7.5286 5.51891,7.42828 5.51988,7.32795 5.52063,7.17601 5.51982,6.96533 5.51923,6.80628 5.51864,6.64723 Z"
           fill="#80d7de"
           id="path81" /><path
           d="M 6.04158,6.03398 C 6.00388,6.05988 5.96623,6.05954 5.92859,6.05892 5.49979,6.05185 5.52015,6.13092 5.52616,5.62098 5.68222,5.59239 5.83621,5.58931 6.01632,5.58539 6.04217,5.72556 6.0419,5.86659 6.04158,6.03398 Z"
           fill="#80d8dd"
           id="path82" /><path
           d="M 4.52515,8.58921 C 4.68233,8.58799 4.83952,8.58677 5.02268,8.58203 5.1681,8.58052 5.28754,8.58254 5.45052,8.57773 5.5402,8.55392 5.58634,8.53694 5.63248,8.51996 5.88668,8.52286 6.14088,8.52576 6.42212,8.5294 6.46553,8.55856 6.48189,8.58696 6.47658,8.63125 5.81255,8.64732 5.1702,8.6475 4.52715,8.63307 4.52645,8.61845 4.52515,8.58921 4.52515,8.58921 Z"
           fill="#676a68"
           id="path83" /><path
           d="M 5.62173,8.50174 C 5.58641,8.53693 5.54028,8.55391 5.47604,8.57502 5.46624,8.24042 5.47452,7.9017 5.50041,7.54578 5.5194,7.68626 5.5208,7.84394 5.5235,8.02754 5.55351,8.19681 5.58221,8.34017 5.62173,8.50174 Z"
           fill="#47bf97"
           id="path84" /><path
           d="M 6.67595,5.55755 C 6.67759,5.57409 6.66697,5.58003 6.63932,5.59261 6.60658,5.58626 6.59085,5.57327 6.57178,5.54514 6.60019,5.53565 6.63194,5.5413 6.67595,5.55755 Z"
           fill="#477c64"
           id="path85" /><path
           d="M 6.5524,8.4762 C 6.56032,8.48924 6.5501,8.50449 6.52093,8.52087 6.51433,8.50823 6.52509,8.49371 6.5524,8.4762 Z"
           fill="#5bd4b0"
           id="path86" /><path
           d="M 3.02409,8.10369 C 2.86881,8.10736 2.7312,8.09349 2.57386,8.04422 2.56478,7.53495 2.57544,7.06107 2.5861,6.58719 2.73148,6.5859 2.87686,6.5846 3.04427,6.58264 3.05812,7.08337 3.04994,7.58477 3.02409,8.10369 Z"
           fill="#82dadf"
           id="path87" /><path
           d="m 3.0664,6.03035 c -0.16189,0.0261 -0.3236,0.0261 -0.5039,0.0261 0,-0.15983 0,-0.29061 0,-0.47323 0.15183,0 0.30127,0 0.47724,-0.00137 0.02663,0.13988 0.02673,0.28114 0.02666,0.4485 z"
           fill="#82dbdf"
           id="path88" /><path
           d="m 3.5927,8.52182 c 0,0 0.00382,0.02314 -0.02115,0.04198 C 3.38888,8.58683 3.23118,8.59103 3.07349,8.59523 3.08129,8.56009 3.08909,8.52495 3.11155,8.47858 3.24423,8.46882 3.36226,8.4703 3.51218,8.48463 3.55634,8.51361 3.57255,8.52172 3.5927,8.52182 Z"
           fill="#589484"
           id="path89" /><path
           d="M 3.63683,5.06344 C 3.64365,5.08383 3.63237,5.09726 3.60466,5.11227 3.59255,5.10736 3.59265,5.09727 3.5937,5.07206 3.59466,5.05695 3.62298,5.0601 3.63683,5.06344 Z"
           fill="#56cead"
           id="path90" /><path
           d="M 3.59212,8.50875 C 3.57254,8.52176 3.55633,8.51365 3.53748,8.4851 3.54073,8.47203 3.55057,8.47139 3.57517,8.4701 3.58993,8.46945 3.59156,8.49564 3.59212,8.50875 Z"
           fill="#56cead"
           id="path91" /><path
           d="M 2.62829,3.11504 C 2.58441,2.959 2.56344,2.8031 2.54297,2.62258 2.54346,2.59795 2.56961,2.58642 2.58294,2.58131 2.69735,2.58098 2.79843,2.58575 2.92439,2.59381 2.96869,2.73469 2.98811,2.8723 3.00786,3.03437 2.8892,3.07761 2.7702,3.0964 2.62829,3.11504 Z"
           fill="#81d8df"
           id="path92" /><path
           d="M 7.031,5.12061 C 7.01459,5.11515 7.00038,5.10615 6.9812,5.0831 6.98394,5.06875 6.99386,5.06492 7.01928,5.05742 7.03478,5.05375 7.0342,5.06227 7.03326,5.07895 7.03233,5.09564 7.031,5.12061 7.031,5.12061 Z"
           fill="#495b58"
           id="path93" /><path
           d="M 4.05857,4.53565 C 4.07609,4.53222 4.09087,4.54183 4.11221,4.5642 4.10901,4.57621 4.09777,4.57776 4.07042,4.57355 4.05433,4.56779 4.05729,4.54638 4.05857,4.53565 Z"
           fill="#81a29c"
           id="path94" /><path
           d="M 4.06148,4.67258 C 4.12021,4.64743 4.18637,4.62871 4.2326,4.65135 4.3165,4.69242 4.43752,4.74514 4.45598,4.81606 4.50409,5.00081 4.35756,5.00494 4.22606,5.00007 4.18799,4.99866 4.14983,4.99973 4.08612,4.99932 4.06033,4.89854 4.06012,4.7981 4.06148,4.67258 Z"
           fill="#7f6366"
           id="path95" /><path
           d="M 7.03203,5.14549 C 7.03096,5.12062 7.03229,5.09564 7.0325,5.08316 7.05869,5.06917 7.08465,5.06766 7.13,5.06888 7.15736,5.08751 7.16901,5.09988 7.20482,5.1268 7.25864,5.13615 7.29199,5.12743 7.32534,5.11871 7.35094,5.11851 7.37655,5.1183 7.42133,5.1182 7.4974,5.41438 7.36796,5.52006 7.06116,5.47049 7.03484,5.37045 7.03397,5.27041 7.03203,5.14549 Z"
           fill="#7f6467"
           id="path96" /><path
           d="m 2.56469,6.59454 c 0.01073,0.46657 7e-5,0.94045 -0.0106,1.43858 C 2.53049,7.9796 2.48473,7.90116 2.48702,7.82416 2.49913,7.41652 2.52331,7.00925 2.56469,6.59454 Z"
           fill="#47bf97"
           id="path97" /><path
           d="M 2.98317,9.05719 C 3.02238,9.18101 3.0361,9.30564 3.05659,9.44921 3.06337,9.46816 3.06533,9.4691 3.05176,9.46902 3.03818,9.46894 3.01178,9.47135 2.98659,9.47107 2.64097,9.56109 2.68367,9.27193 2.59663,9.10264 2.59538,9.08823 2.60045,9.05977 2.60045,9.05977 2.71953,9.05918 2.8386,9.05859 2.98317,9.05719 Z"
           fill="#594745"
           id="path98" /><path
           d="M 4.52221,9.05144 C 4.03508,9.05448 3.54796,9.05752 3.03331,9.06012 3.00717,8.95799 3.00855,8.8563 3.03386,8.72994 3.09879,8.70532 3.1398,8.70536 3.1816,8.73091 3.15475,8.94982 3.24232,9.00899 3.42802,9.00328 3.79252,8.99205 4.15759,9.00011 4.52373,8.99992 4.52502,8.99966 4.52763,8.99914 4.52642,9.01223 4.52521,9.02532 4.52221,9.05144 4.52221,9.05144 Z"
           fill="#495045"
           id="path99" /><path
           d="M 3.18074,8.70541 C 3.13973,8.70536 3.09872,8.70531 3.03727,8.70476 3.03074,8.67725 3.04466,8.65024 3.06602,8.60923 3.23117,8.59104 3.38886,8.58685 3.57247,8.5755 3.73876,8.56796 3.87913,8.56756 4.0387,8.55594 4.19857,8.55475 4.33926,8.56478 4.50252,8.58202 4.52511,8.58922 4.52641,8.61846 4.52567,8.63249 4.52493,8.64653 4.52199,8.64565 4.49495,8.64622 4.32291,8.64686 4.17759,8.64072 4.03298,8.64834 3.74869,8.66332 3.4648,8.68594 3.18074,8.70541 Z"
           fill="#3f413e"
           id="path100" /><path
           d="M 2.59794,9.11707 C 2.68372,9.27196 2.64102,9.56111 2.985,9.48394 3.00854,9.49705 3.00582,9.5228 3.00582,9.5228 2.8844,9.5255 2.76299,9.5282 2.60997,9.51875 2.57838,9.50661 2.55786,9.48924 2.55786,9.48924 2.56205,9.47649 2.56624,9.46375 2.57062,9.43086 2.57296,9.36662 2.5751,9.32251 2.57924,9.23866 2.5868,9.17163 2.59237,9.14435 2.59794,9.11707 Z"
           fill="#3f413e"
           id="path101" /><path
           d="M 2.59659,9.10267 C 2.59228,9.14435 2.58671,9.17164 2.57177,9.21765 2.56276,9.17877 2.56312,9.12116 2.58194,9.06167 2.60041,9.0598 2.59534,9.08826 2.59659,9.10267 Z"
           fill="#5dbf99"
           id="path102" /><path
           d="M 3.01376,9.53359 C 3.00574,9.52277 3.00846,9.49702 3.01011,9.48418 3.01176,9.47134 3.03816,9.46893 3.0514,9.46832 3.05035,9.49327 3.03606,9.51884 3.01376,9.53359 Z"
           fill="#63b290"
           id="path103" /><path
           d="M 2.55567,9.49496 C 2.55784,9.48924 2.57835,9.50661 2.58383,9.51889 2.58931,9.53118 2.57073,9.52889 2.56163,9.52717 2.55252,9.52544 2.5535,9.50068 2.55567,9.49496 Z"
           fill="#4ecb9b"
           id="path104" /><path
           d="M 7.04074,9.42591 C 7.06022,9.41825 7.07333,9.43028 7.08901,9.45828 7.09496,9.47051 7.06822,9.47218 7.05492,9.47312 7.04033,9.46332 7.03904,9.45258 7.04074,9.42591 Z"
           fill="#63b290"
           id="path105" /><path
           d="M 4.53778,9.05403 C 4.52222,9.05145 4.52522,9.02533 4.55348,9.01254 5.09024,8.99979 5.59899,8.99067 6.10713,9.00446 6.30734,9.00989 6.46016,8.98664 6.51139,8.76288 6.52975,8.84682 6.54812,8.93076 6.56745,9.03768 5.92521,9.06018 5.282,9.05971 4.61157,9.06086 4.57402,9.06052 4.56368,9.05857 4.53778,9.05403 Z"
           fill="#676a68"
           id="path106" /><path
           d="M 7.30589,5.11837 C 7.29208,5.12745 7.25873,5.13616 7.2168,5.13175 7.23426,5.11842 7.26031,5.11822 7.30589,5.11837 Z"
           fill="#6e6162"
           id="path107" /><path
           d="M 6.51031,8.74934 C 6.46019,8.9866 6.30737,9.00985 6.10716,9.00442 5.59902,8.99063 5.09027,8.99975 4.55472,8.99941 4.52767,8.99911 4.52506,8.99963 4.52467,8.97461 4.52355,8.84828 4.52282,8.74695 4.52209,8.64563 c 0,0 0.00294,8.8e-4 0.00439,0.00146 0.64379,4e-4 1.28614,2.1e-4 1.95598,-4.4e-4 0.02749,-4.7e-4 0.02602,-4e-5 0.02606,0.01525 3.4e-4,0.02582 6.5e-4,0.03633 9.5e-4,0.04685 0,0 -2.8e-4,0.02709 8.4e-4,0.04059 z"
           fill="#7f6366"
           id="path108" /><path
           d="M 6.52077,8.7033 C 6.50911,8.69825 6.50881,8.68773 6.50879,8.66142 6.52126,8.65595 6.53414,8.66563 6.54482,8.67734 6.54626,8.67892 6.53663,8.69075 6.52077,8.7033 Z"
           fill="#676a68"
           id="path109" /><path
           d="M 4.06308,7.97955 C 4.06321,8.00923 4.06152,8.01909 4.05844,8.04391 4.04472,7.60057 4.0324,7.14228 4.03822,6.69153 4.05881,6.83793 4.06124,6.97678 4.06368,7.11564 4.06274,7.27571 4.06181,7.43579 4.06049,7.64553 4.0616,7.75689 4.06309,7.81858 4.06459,7.88026 4.06348,7.90676 4.06237,7.93325 4.06308,7.97955 Z"
           fill="#4bbe9d"
           id="path110" /><path
           d="M 4.07921,7.09936 C 4.06126,6.97674 4.05883,6.83789 4.05408,6.673 4.08079,6.62673 4.10982,6.60649 4.15724,6.58557 4.14866,6.75097 4.12169,6.91704 4.07921,7.09936 Z"
           fill="#7fe0d7"
           id="path111" /><path
           d="M 5.50134,6.6629 C 5.51922,6.80627 5.51981,6.96532 5.51937,7.15095 5.5069,7.01121 5.49547,6.8449 5.50134,6.6629 Z"
           fill="#47bf97"
           id="path112" /><path
           d="M 4.07857,7.86759 C 4.06312,7.81853 4.06163,7.75684 4.06225,7.67212 4.07375,7.71771 4.08313,7.78633 4.07857,7.86759 Z"
           fill="#7fe0d7"
           id="path113" /><path
           d="M 4.49504,8.6462 C 4.52281,8.74696 4.52354,8.84828 4.52336,8.97488 4.15762,9.00009 3.79255,8.99203 3.42805,9.00325 3.24235,9.00897 3.15478,8.9498 3.18163,8.73088 3.46489,8.68593 3.74879,8.6633 4.03308,8.64833 4.17768,8.64071 4.323,8.64685 4.49504,8.6462 Z"
           fill="#5e4344"
           id="path114" /></g></g></g></svg>
